<?xml version="1.0" encoding="UTF-8" standalone="no"?>
<!-- Generator: Adobe Illustrator 19.0.0, SVG Export Plug-In . SVG Version: 6.00 Build 0)  -->

<svg
   xmlns:dc="http://purl.org/dc/elements/1.1/"
   xmlns:cc="http://creativecommons.org/ns#"
   xmlns:rdf="http://www.w3.org/1999/02/22-rdf-syntax-ns#"
   xmlns:svg="http://www.w3.org/2000/svg"
   xmlns="http://www.w3.org/2000/svg"
   xmlns:sodipodi="http://sodipodi.sourceforge.net/DTD/sodipodi-0.dtd"
   xmlns:inkscape="http://www.inkscape.org/namespaces/inkscape"
   version="1.1"
   id="Ebene_1"
   x="0px"
   y="0px"
   viewBox="0 0 16 16"
   style="enable-background:new 0 0 16 16;"
   xml:space="preserve"
   inkscape:version="0.91 r13725"
   sodipodi:docname="SparkTransformationPMMLApplyNodeFactory.svg"
   inkscape:export-filename="C:\temp\spark\spark\SparkTransformationPMMLApplyNodeFactory.png"
   inkscape:export-xdpi="90"
   inkscape:export-ydpi="90"><metadata
     id="metadata33"><rdf:RDF><cc:Work
         rdf:about=""><dc:format>image/svg+xml</dc:format><dc:type
           rdf:resource="http://purl.org/dc/dcmitype/StillImage" /><dc:title></dc:title></cc:Work></rdf:RDF></metadata><defs
     id="defs31" /><sodipodi:namedview
     pagecolor="#ffffff"
     bordercolor="#666666"
     borderopacity="1"
     objecttolerance="10"
     gridtolerance="10"
     guidetolerance="10"
     inkscape:pageopacity="0"
     inkscape:pageshadow="2"
     inkscape:window-width="2498"
     inkscape:window-height="1417"
     id="namedview29"
     showgrid="false"
     inkscape:zoom="14.75"
     inkscape:cx="8"
     inkscape:cy="8"
     inkscape:window-x="54"
     inkscape:window-y="-8"
     inkscape:window-maximized="1"
     inkscape:current-layer="Ebene_1" /><style
     type="text/css"
     id="style3">
	.st0{fill:#CBCBCB;}
	.st1{fill:#FFFFFF;}
</style><g
     id="g11"><rect
       x="1"
       y="3.3"
       class="st1"
       width="2.6"
       height="2.6"
       id="rect13" /><rect
       x="4.6"
       y="0"
       class="st1"
       width="2.6"
       height="2.4"
       id="rect15" /><rect
       x="8.1"
       y="3.3"
       class="st1"
       width="2.6"
       height="2.6"
       id="rect17" /><rect
       x="8.1"
       y="0"
       class="st1"
       width="2.6"
       height="2.4"
       id="rect19" /><rect
       x="1"
       y="0"
       class="st1"
       width="2.6"
       height="2.4"
       id="rect21" /><rect
       x="4.6"
       y="3.3"
       class="st1"
       width="2.6"
       height="2.6"
       id="rect23" /><path
       d="M10.7,2.3H8.1V0h-1v2.4H4.6V0h-1v2.4H1V0H0v6.4v0.5h11.7V0h-1V2.3z M3.6,5.9H1V3.3h2.6V5.9z M7.1,5.9H4.6V3.3h2.6V5.9z    M10.7,5.9H8.1V3.3h2.6V5.9z"
       id="path25" /></g><g
     id="XMLID_11_"
     style="fill:#0000ff;fill-opacity:1"><polygon
       id="XMLID_12_"
       points="6.4,11.7 2.6,9.4 2.6,11.2 0,11.2 0,12.2 2.6,12.2 2.6,13.9  "
       style="fill:#0000ff;fill-opacity:1" /></g><g
     id="g4150"><path
       style="fill:#ffffff;fill-opacity:1"
       inkscape:connector-curvature="0"
       id="path14"
       d="M 11.9,9.2 10.5,7.3 9.8,9.6 C 9.7,9.8 9.6,9.9 9.4,10 l -2.3,0.7 2,1.4 c 0.2,0.1 0.3,0.3 0.3,0.5 l 0,2.4 1.9,-1.5 c 0.2,-0.1 0.4,-0.2 0.5,-0.1 l 2.3,0.7 -0.8,-2.2 c -0.1,-0.2 0,-0.4 0.1,-0.5 L 14.8,9.5 12.4,9.6 C 12.2,9.5 12,9.4 11.9,9.2 Z"
       class="st0" /><path
       style="fill:#e77215;fill-opacity:1;stroke:#e77215;stroke-width:0.40000001;stroke-miterlimit:4;stroke-dasharray:none;stroke-opacity:1"
       inkscape:connector-curvature="0"
       id="path16"
       d="m 15.148388,8.4204986 -2.8,0.1 -1.6,-2.3 c -0.2,-0.3 -0.8000003,-0.2 -0.9000003,0.2 l -0.7000002,2.7 -2.6,0.9000004 c -0.4,0.1 -0.5,0.7 -0.1,0.9 l 2.3,1.6 0,2.8 c 0,0.4 0.5,0.6 0.8,0.4 l 2.2000005,-1.7 2.6,0.9 c 0.4,0.1 0.8,-0.3 0.6,-0.6 l -0.9,-2.6 1.6,-2.3000004 c 0.1,-0.3 0.1,-0.5 0,-0.7 0,-0.1 -0.3,-0.3 -0.5,-0.3 z m -2.1,2.7000004 c -0.1,0.1 -0.1,0.3 -0.1,0.5 l 0.7,1.9 -1.9,-0.6 c -0.2,-0.1 -0.3,0 -0.5,0.1 l -1.6000005,1.2 0,-2 c 0,-0.2 -0.1,-0.3 -0.2,-0.4 l -1.7,-1.2 1.9,-0.6 C 9.8483877,9.9204988 9.9483877,9.8204988 9.9483877,9.7204986 l 0.6000003,-2 1.2,1.6 c 0.1,0.1 0.3,0.2 0.4,0.2 l 2,-0.1 -1.1,1.7000004 z" /></g></svg>