<?xml version="1.0" encoding="UTF-8" standalone="no"?>
<!-- Generator: Adobe Illustrator 19.0.0, SVG Export Plug-In . SVG Version: 6.00 Build 0)  -->

<svg
   version="1.1"
   id="Ebene_1"
   x="0px"
   y="0px"
   viewBox="0 0 16 16"
   style="enable-background:new 0 0 16 16;"
   xml:space="preserve"
   inkscape:version="1.3 (0e150ed6c4, 2023-07-21)"
   sodipodi:docname="icon.svg"
   inkscape:export-filename="icon.png"
   inkscape:export-xdpi="102"
   inkscape:export-ydpi="102"
   xmlns:inkscape="http://www.inkscape.org/namespaces/inkscape"
   xmlns:sodipodi="http://sodipodi.sourceforge.net/DTD/sodipodi-0.dtd"
   xmlns="http://www.w3.org/2000/svg"
   xmlns:svg="http://www.w3.org/2000/svg"
   xmlns:rdf="http://www.w3.org/1999/02/22-rdf-syntax-ns#"
   xmlns:cc="http://creativecommons.org/ns#"
   xmlns:dc="http://purl.org/dc/elements/1.1/"><metadata
     id="metadata15"><rdf:RDF><cc:Work
         rdf:about=""><dc:format>image/svg+xml</dc:format><dc:type
           rdf:resource="http://purl.org/dc/dcmitype/StillImage" /></cc:Work></rdf:RDF></metadata><defs
     id="defs13" /><sodipodi:namedview
     pagecolor="#ffffff"
     bordercolor="#666666"
     borderopacity="1"
     objecttolerance="10"
     gridtolerance="10"
     guidetolerance="10"
     inkscape:pageopacity="0"
     inkscape:pageshadow="2"
     inkscape:window-width="2055"
     inkscape:window-height="1499"
     id="namedview11"
     showgrid="true"
     inkscape:zoom="29.5"
     inkscape:cx="1.1016949"
     inkscape:cy="7.5084746"
     inkscape:window-x="3840"
     inkscape:window-y="32"
     inkscape:window-maximized="0"
     inkscape:current-layer="Ebene_1"
     inkscape:showpageshadow="2"
     inkscape:pagecheckerboard="0"
     inkscape:deskcolor="#d1d1d1"><inkscape:grid
       type="xygrid"
       id="grid4136"
       originx="0"
       originy="0"
       spacingy="1"
       spacingx="1"
       units="px"
       visible="true" /></sodipodi:namedview><style
     type="text/css"
     id="style3">&#10;	.st0{fill:#CBCBCB;}&#10;</style><rect
     opacity="0.25"
     x="7.0111246"
     y="11.978483"
     width="1"
     height="2"
     fill="#000000"
     id="rect1" /><rect
     opacity="0.35"
     x="8.0111246"
     y="11.978483"
     width="15"
     height="2"
     fill="#000000"
     id="rect2"
     style="stroke-width:1.0015748;stroke-dasharray:none" /><path
     d="M 0.01112454,10.978484 H 1.0111246 v 4 H 0.01112454 Z"
     fill="#000000"
     id="path2" /><path
     opacity="0.25"
     d="m 1.0111246,10.978484 h 1 v 4 h -1 z"
     fill="#000000"
     id="path3" /><path
     opacity="0.35"
     d="m 2.0111246,13.978484 h 1 v 1 h -1 z"
     fill="#000000"
     id="path4" /><path
     d="m 3.0111246,15.978484 h -1 V 9.9784741 h 1 v 1.0000099 h 3 v 1 h 1 v 2 h -1 v 1 h -3 z"
     fill="#000000"
     id="path5" /><g
     id="g7"
     transform="translate(15.222276,7.0075353)"><path
       style="fill:#1a1a1a;stroke:#000000;stroke-width:1.13386;stroke-linecap:butt;stroke-dasharray:none"
       d="M -1.9936277,-6.9757884 V 4.0422896"
       id="path1" /><path
       id="path7"
       style="fill:#000000;fill-opacity:1;stroke:#000000;stroke-width:0;stroke-linecap:butt;stroke-dasharray:none;stroke-opacity:1"
       d="m -4.6355437,-3.528341 a 3.59778,3.7665458 0 0 0 -3.597656,3.765625 3.59778,3.7665458 0 0 0 3.597656,3.7675782 3.59778,3.7665458 0 0 0 2.3164065,-0.8847656 V 1.6298622 a 2.6570358,2.863723 0 0 1 -2.3164065,1.4707031 2.6570358,2.863723 0 0 1 -2.65625,-2.8632813 2.6570358,2.863723 0 0 1 2.65625,-2.8632812 2.6570358,2.863723 0 0 1 2.3164065,1.4707031 v -1.484375 A 3.59778,3.7665458 0 0 0 -4.6355437,-3.528341 Z" /></g></svg>
