<?xml version="1.0" encoding="UTF-8" standalone="no"?>
<!-- Generator: Adobe Illustrator 19.0.0, SVG Export Plug-In . SVG Version: 6.00 Build 0)  -->

<svg
   xmlns:dc="http://purl.org/dc/elements/1.1/"
   xmlns:cc="http://creativecommons.org/ns#"
   xmlns:rdf="http://www.w3.org/1999/02/22-rdf-syntax-ns#"
   xmlns:svg="http://www.w3.org/2000/svg"
   xmlns="http://www.w3.org/2000/svg"
   xmlns:sodipodi="http://sodipodi.sourceforge.net/DTD/sodipodi-0.dtd"
   xmlns:inkscape="http://www.inkscape.org/namespaces/inkscape"
   version="1.1"
   id="Ebene_1"
   x="0px"
   y="0px"
   viewBox="0 0 16 16"
   style="enable-background:new 0 0 16 16;"
   xml:space="preserve"
   inkscape:version="0.91 r13725"
   sodipodi:docname="SparkSamplingNodeFactory.svg"
   inkscape:export-filename="C:\temp\spark\spark\SparkSamplingNodeFactory.png"
   inkscape:export-xdpi="90"
   inkscape:export-ydpi="90"><metadata
     id="metadata33"><rdf:RDF><cc:Work
         rdf:about=""><dc:format>image/svg+xml</dc:format><dc:type
           rdf:resource="http://purl.org/dc/dcmitype/StillImage" /></cc:Work></rdf:RDF></metadata><defs
     id="defs31" /><sodipodi:namedview
     pagecolor="#ffffff"
     bordercolor="#666666"
     borderopacity="1"
     objecttolerance="10"
     gridtolerance="10"
     guidetolerance="10"
     inkscape:pageopacity="0"
     inkscape:pageshadow="2"
     inkscape:window-width="922"
     inkscape:window-height="622"
     id="namedview29"
     showgrid="false"
     inkscape:zoom="14.75"
     inkscape:cx="8"
     inkscape:cy="8"
     inkscape:window-x="0"
     inkscape:window-y="0"
     inkscape:window-maximized="0"
     inkscape:current-layer="Ebene_1" /><style
     type="text/css"
     id="style3">
	.st0{fill:#FFFFFF;}
	.st1{fill:#CBCBCB;}
</style><rect
     style="fill:#ffffff"
     id="rect7"
     height="2.5999999"
     width="2.4000001"
     class="st0"
     y="8"
     x="4.5999999" /><rect
     style="fill:#ffffff"
     id="rect9"
     height="2.5999999"
     width="2.5999999"
     class="st0"
     y="8"
     x="1" /><rect
     style="fill:#ffffff"
     id="rect11"
     height="2.5999999"
     width="2.5999999"
     class="st0"
     y="8"
     x="8" /><rect
     style="fill:#ffffff"
     id="rect13"
     height="2.5999999"
     width="2.5999999"
     class="st0"
     y="1"
     x="1" /><rect
     style="fill:#ffffff"
     id="rect15"
     height="2.5999999"
     width="2.4000001"
     class="st0"
     y="1"
     x="4.5999999" /><rect
     style="fill:#ffffff"
     id="rect17"
     height="2.5999999"
     width="2.5999999"
     class="st0"
     y="1"
     x="8" /><rect
     style="fill:#f1933b;fill-opacity:1"
     id="rect19"
     height="2.3"
     width="9.6000004"
     class="st1"
     y="4.6999998"
     x="1" /><path
     inkscape:connector-curvature="0"
     id="path21"
     d="m 0,0 0,3.7 0,0 0,4.3 0,0 0,3.6 11.6,0 0,-3.6 0,-4.3 L 11.6,0 0,0 Z M 4.6,1 7,1 7,3.6 4.6,3.6 4.6,1 Z M 1,1 3.6,1 3.6,3.6 1,3.6 1,1 Z m 2.6,9.6 -2.6,0 0,-2.6 2.6,0 0,2.6 z m 3.4,0 -2.4,0 0,-2.6 2.4,0 0,2.6 z m 3.6,0 -2.6,0 0,-2.6 2.6,0 0,2.6 z M 10.6,7 1,7 1,4.7 l 9.6,0 0,2.3 z m 0,-3.4 -2.6,0 0,-2.6 2.6,0 0,2.6 z" /><g
     id="g4150"><path
       style="fill:#ffffff;fill-opacity:1"
       inkscape:connector-curvature="0"
       id="path14"
       d="M 11.9,9.2 10.5,7.3 9.8,9.6 C 9.7,9.8 9.6,9.9 9.4,10 l -2.3,0.7 2,1.4 c 0.2,0.1 0.3,0.3 0.3,0.5 l 0,2.4 1.9,-1.5 c 0.2,-0.1 0.4,-0.2 0.5,-0.1 l 2.3,0.7 -0.8,-2.2 c -0.1,-0.2 0,-0.4 0.1,-0.5 L 14.8,9.5 12.4,9.6 C 12.2,9.5 12,9.4 11.9,9.2 Z"
       class="st0" /><path
       style="fill:#e77215;fill-opacity:1;stroke:#e77215;stroke-width:0.40000001;stroke-miterlimit:4;stroke-dasharray:none;stroke-opacity:1"
       inkscape:connector-curvature="0"
       id="path16"
       d="m 15.148388,8.4204986 -2.8,0.1 -1.6,-2.3 c -0.2,-0.3 -0.8000003,-0.2 -0.9000003,0.2 l -0.7000002,2.7 -2.6,0.9000004 c -0.4,0.1 -0.5,0.7 -0.1,0.9 l 2.3,1.6 0,2.8 c 0,0.4 0.5,0.6 0.8,0.4 l 2.2000005,-1.7 2.6,0.9 c 0.4,0.1 0.8,-0.3 0.6,-0.6 l -0.9,-2.6 1.6,-2.3000004 c 0.1,-0.3 0.1,-0.5 0,-0.7 0,-0.1 -0.3,-0.3 -0.5,-0.3 z m -2.1,2.7000004 c -0.1,0.1 -0.1,0.3 -0.1,0.5 l 0.7,1.9 -1.9,-0.6 c -0.2,-0.1 -0.3,0 -0.5,0.1 l -1.6000005,1.2 0,-2 c 0,-0.2 -0.1,-0.3 -0.2,-0.4 l -1.7,-1.2 1.9,-0.6 C 9.8483877,9.9204988 9.9483877,9.8204988 9.9483877,9.7204986 l 0.6000003,-2 1.2,1.6 c 0.1,0.1 0.3,0.2 0.4,0.2 l 2,-0.1 -1.1,1.7000004 z" /></g></svg>