<?xml version="1.0" encoding="utf-8"?>
<!-- Generator: Adobe Illustrator 19.0.0, SVG Export Plug-In . SVG Version: 6.00 Build 0)  -->
<!DOCTYPE svg PUBLIC "-//W3C//DTD SVG 1.1//EN" "http://www.w3.org/Graphics/SVG/1.1/DTD/svg11.dtd">
<svg version="1.1" id="Ebene_1" xmlns="http://www.w3.org/2000/svg" xmlns:xlink="http://www.w3.org/1999/xlink" x="0px" y="0px"
	 viewBox="0 0 16 16" style="enable-background:new 0 0 16 16;" xml:space="preserve">
<g>
	<path d="M10.7,3.6c-0.2,0-0.4,0-0.6,0c0-0.5,0-1,0-1.5C10,0.9,9,0,7.8,0S5.6,0.9,5.5,2.1c0,0.5,0,1,0,1.5c-0.2,0-0.4,0-0.6,0
		C4.6,3.6,4.5,3.7,4.5,4c0,1.4,0,2.7,0,4.1c0,0.2,0.1,0.3,0.3,0.3c1.9,0,3.9,0,5.8,0c0.2,0,0.3-0.1,0.3-0.3c0-1.4,0-2.8,0-4.1
		C10.9,3.8,10.9,3.6,10.7,3.6z M7.8,6.9c-0.6,0-1-0.4-1-1s0.4-1,1-1s1,0.4,1,1S8.4,6.9,7.8,6.9z M6.4,3.6c0-0.5-0.1-1.1,0-1.6
		c0.1-0.7,0.8-1.2,1.5-1.1C8.7,1,9.2,1.6,9.3,2.3c0,0.4,0,0.8,0,1.3C8.3,3.6,7.4,3.6,6.4,3.6z"/>
</g>
<g>
	<path d="M0,15v-4.3h0.9v1.7h1.7v-1.7h0.9V15H2.6v-1.9H0.9V15H0z"/>
	<path d="M4.4,10.7H6c2.7,0,2.7,4.3,0,4.3H4.4V10.7z M5.2,11.4v2.8h0.6c1,0,1.2-0.7,1.2-1.6c0-1-0.5-1.3-1.4-1.3H5.2V11.4z"/>
	<path d="M8.7,15v-4.3h2.9v0.7h-2v1h1.8v0.7H9.6V15H8.7z"/>
	<path d="M12.1,13.6l0.8-0.1c0.1,0.7,1.6,1.3,1.8,0.3c0.1-0.8-1.6-0.8-2-1.2c-1.7-2,2.7-3.3,2.8-0.8h-0.9c-0.1-0.6-0.8-0.7-1.3-0.4
		c-0.5,0.8,1.1,0.8,1.2,0.9c0.7,0.2,1.2,0.7,1,1.5C15.3,15.8,12.3,15.3,12.1,13.6z"/>
</g>
</svg>
