<?xml version="1.0" encoding="UTF-8" standalone="no"?>
<svg
   xmlns:svg="http://www.w3.org/2000/svg"
   xmlns="http://www.w3.org/2000/svg"
   xmlns:sodipodi="http://sodipodi.sourceforge.net/DTD/sodipodi-0.dtd"
   xmlns:inkscape="http://www.inkscape.org/namespaces/inkscape"
   version="1.1"
   id="Ebene_1"
   x="0px"
   y="0px"
   viewBox="0 0 16 16"
   style="enable-background:new 0 0 16 16;"
   xml:space="preserve"
   inkscape:version="0.92.1 r15371"
   sodipodi:docname="icon-repartition.svg"
   inkscape:export-filename="/tmp/icon-repartition.png"
   inkscape:export-xdpi="96"
   inkscape:export-ydpi="96"
   width="100%"
   height="100%">
   <sodipodi:namedview
     pagecolor="#ffffff"
     bordercolor="#666666"
     borderopacity="1"
     objecttolerance="10"
     gridtolerance="10"
     guidetolerance="10"
     inkscape:pageopacity="0"
     inkscape:pageshadow="2"
     inkscape:window-width="1600"
     inkscape:window-height="877"
     id="namedview18"
     showgrid="true"
     inkscape:zoom="34.124859"
     inkscape:cx="8.2688099"
     inkscape:cy="8.8633145"
     inkscape:window-x="1376"
     inkscape:window-y="1080"
     inkscape:window-maximized="1"
     inkscape:current-layer="Ebene_1">
     <inkscape:grid type="xygrid" id="grid4232" />
  </sodipodi:namedview>
  <g transform="matrix(0,0.71153727,1,0,-5.1,-2.3845963)"
     id="XMLID_11_"><polygon
       id="XMLID_12_"
       points="12.1,15.4 16,13.1 12.1,10.8 12.1,12.6 6.4,12.6 6.4,13.6 12.1,13.6 " /></g><rect
     style="opacity:1;fill:#fffff6;fill-opacity:1;stroke:#000000;stroke-width:1;stroke-miterlimit:4;stroke-dasharray:none;stroke-opacity:1"
     id="rect4600-6"
     width="3"
     height="3"
     x="1.5"
     y="0.5" /><rect
     style="opacity:1;fill:#fffff6;fill-opacity:1;stroke:#000000;stroke-width:1;stroke-miterlimit:4;stroke-dasharray:none;stroke-opacity:1"
     id="rect4600-2"
     width="3"
     height="3"
     x="11.5"
     y="0.5" /><rect
     style="opacity:1;fill:#fffff6;fill-opacity:1;stroke:#000000;stroke-width:1;stroke-miterlimit:4;stroke-dasharray:none;stroke-opacity:1"
     id="rect4600-8"
     width="3"
     height="3"
     x="0.5"
     y="12.5" /><rect
     style="opacity:1;fill:#fffff6;fill-opacity:1;stroke:#000000;stroke-width:1;stroke-miterlimit:4;stroke-dasharray:none;stroke-opacity:1"
     id="rect4600-8-7"
     width="3"
     height="3"
     x="3.5"
     y="12.5" /><rect
     style="opacity:1;fill:#fffff6;fill-opacity:1;stroke:#000000;stroke-width:1;stroke-miterlimit:4;stroke-dasharray:none;stroke-opacity:1"
     id="rect4600-8-7-9"
     width="3"
     height="3"
     x="6.5"
     y="12.5" /><rect
     style="opacity:1;fill:#fffff6;fill-opacity:1;stroke:#000000;stroke-width:1;stroke-miterlimit:4;stroke-dasharray:none;stroke-opacity:1"
     id="rect4600-8-7-2"
     width="3"
     height="3"
     x="9.5"
     y="12.5" /><rect
     style="opacity:1;fill:#fffff6;fill-opacity:1;stroke:#000000;stroke-width:1;stroke-miterlimit:4;stroke-dasharray:none;stroke-opacity:1"
     id="rect4600-8-7-0"
     width="3"
     height="3"
     x="12.5"
     y="12.5" /><g
     id="g4150"><path
       style="fill:#ffffff;fill-opacity:1"
       inkscape:connector-curvature="0"
       id="path14"
       d="M 11.9,9.2 10.5,7.3 9.8,9.6 C 9.7,9.8 9.6,9.9 9.4,10 l -2.3,0.7 2,1.4 c 0.2,0.1 0.3,0.3 0.3,0.5 l 0,2.4 1.9,-1.5 c 0.2,-0.1 0.4,-0.2 0.5,-0.1 l 2.3,0.7 -0.8,-2.2 c -0.1,-0.2 0,-0.4 0.1,-0.5 L 14.8,9.5 12.4,9.6 C 12.2,9.5 12,9.4 11.9,9.2 Z"
       class="st0" /><path
       style="fill:#e77215;fill-opacity:1;stroke:#e77215;stroke-width:0.40000001;stroke-miterlimit:4;stroke-dasharray:none;stroke-opacity:1"
       inkscape:connector-curvature="0"
       id="path16"
       d="m 15.148388,8.4204986 -2.8,0.1 -1.6,-2.3 c -0.2,-0.3 -0.8000003,-0.2 -0.9000003,0.2 l -0.7000002,2.7 -2.6,0.9000004 c -0.4,0.1 -0.5,0.7 -0.1,0.9 l 2.3,1.6 0,2.8 c 0,0.4 0.5,0.6 0.8,0.4 l 2.2000005,-1.7 2.6,0.9 c 0.4,0.1 0.8,-0.3 0.6,-0.6 l -0.9,-2.6 1.6,-2.3000004 c 0.1,-0.3 0.1,-0.5 0,-0.7 0,-0.1 -0.3,-0.3 -0.5,-0.3 z m -2.1,2.7000004 c -0.1,0.1 -0.1,0.3 -0.1,0.5 l 0.7,1.9 -1.9,-0.6 c -0.2,-0.1 -0.3,0 -0.5,0.1 l -1.6000005,1.2 0,-2 c 0,-0.2 -0.1,-0.3 -0.2,-0.4 l -1.7,-1.2 1.9,-0.6 C 9.8483877,9.9204988 9.9483877,9.8204988 9.9483877,9.7204986 l 0.6000003,-2 1.2,1.6 c 0.1,0.1 0.3,0.2 0.4,0.2 l 2,-0.1 -1.1,1.7000004 z" /></g></svg>
