<?xml version="1.0" encoding="utf-8"?>
<!-- Generator: Adobe Illustrator 19.0.0, SVG Export Plug-In . SVG Version: 6.00 Build 0)  -->
<!DOCTYPE svg PUBLIC "-//W3C//DTD SVG 1.1//EN" "http://www.w3.org/Graphics/SVG/1.1/DTD/svg11.dtd">
<svg version="1.1" id="Ebene_1" xmlns="http://www.w3.org/2000/svg" xmlns:xlink="http://www.w3.org/1999/xlink" x="0px" y="0px"
	 viewBox="0 0 16 16" style="enable-background:new 0 0 16 16;" xml:space="preserve">
<g>
	<g id="XMLID_102_">
		<path id="XMLID_105_" d="M1.8,10.5c3.2,0,4.5-0.5,5.1-1.1c0.6-0.6,0.7-2.5,0.7-3c-2,0.8-3.9,1.3-5.8,1.3L1.8,10.5
			C1.8,10.5,1.8,10.5,1.8,10.5z"/>
		<path id="XMLID_104_" d="M1.8,12.4v2.9c0,0,0,0,0,0c3.2,0,4.5-0.5,5.1-1.1c0.6-0.6,0.7-2.5,0.7-3C5.7,12,3.7,12.4,1.8,12.4z"/>
		<path id="XMLID_103_" d="M1.8,5.8c3.2,0,5.8-1,5.8-2.1c0-1.2-2.6-2.1-5.8-2.1c0,0,0,0,0,0L1.8,5.8C1.8,5.8,1.8,5.8,1.8,5.8z"/>
	</g>
	<g id="XMLID_11_">
		<polygon id="XMLID_12_" points="11.5,8.4 13.8,4.5 12,4.5 12,0.6 11,0.6 11,4.5 9.2,4.5 		"/>
	</g>
	<g id="XMLID_271_">
		<path id="XMLID_272_" d="M8.8,15V8.2h1.4v2.7h2.7V8.2h1.4V15h-1.4v-3h-2.7v3H8.8z"/>
	</g>
</g>
</svg>
