<?xml version="1.0" encoding="UTF-8" standalone="no"?>
<!-- Generator: Adobe Illustrator 19.0.0, SVG Export Plug-In . SVG Version: 6.00 Build 0)  -->

<svg
   xmlns:dc="http://purl.org/dc/elements/1.1/"
   xmlns:cc="http://creativecommons.org/ns#"
   xmlns:rdf="http://www.w3.org/1999/02/22-rdf-syntax-ns#"
   xmlns:svg="http://www.w3.org/2000/svg"
   xmlns="http://www.w3.org/2000/svg"
   xmlns:sodipodi="http://sodipodi.sourceforge.net/DTD/sodipodi-0.dtd"
   xmlns:inkscape="http://www.inkscape.org/namespaces/inkscape"
   version="1.1"
   id="Ebene_1"
   x="0px"
   y="0px"
   viewBox="0 0 16 16"
   style="enable-background:new 0 0 16 16;"
   xml:space="preserve"
   inkscape:version="0.91 r13725"
   sodipodi:docname="hdfsconnection16x16.svg"
   inkscape:export-filename="C:\DEVELOPMENT\workspaces\bigdata\com.knime.bigdata.filehandling\src\com\knime\bigdata\hdfs\node\connector\webhdfsconnection16x16.png"
   inkscape:export-xdpi="90"
   inkscape:export-ydpi="90"><metadata
     id="metadata21"><rdf:RDF><cc:Work
         rdf:about=""><dc:format>image/svg+xml</dc:format><dc:type
           rdf:resource="http://purl.org/dc/dcmitype/StillImage" /></cc:Work></rdf:RDF></metadata><defs
     id="defs19" /><sodipodi:namedview
     pagecolor="#ffffff"
     bordercolor="#666666"
     borderopacity="1"
     objecttolerance="10"
     gridtolerance="10"
     guidetolerance="10"
     inkscape:pageopacity="0"
     inkscape:pageshadow="2"
     inkscape:window-width="1538"
     inkscape:window-height="877"
     id="namedview17"
     showgrid="true"
     inkscape:zoom="36.354556"
     inkscape:cx="8.0000919"
     inkscape:cy="8.0000919"
     inkscape:window-x="54"
     inkscape:window-y="-8"
     inkscape:window-maximized="1"
     inkscape:current-layer="Ebene_1"><inkscape:grid
       type="xygrid"
       id="grid4157" /></sodipodi:namedview><g
     id="g3"
     transform="matrix(0.78125,0,0,0.78125,1.984375,0.27817797)"><path
       d="m 10.7,3.6 c -0.2,0 -0.4,0 -0.6,0 0,-0.5 0,-1 0,-1.5 C 10,0.9 9,0 7.8,0 6.6,0 5.6,0.9 5.5,2.1 c 0,0.5 0,1 0,1.5 -0.2,0 -0.4,0 -0.6,0 -0.3,0 -0.4,0.1 -0.4,0.4 0,1.4 0,2.7 0,4.1 0,0.2 0.1,0.3 0.3,0.3 1.9,0 3.9,0 5.8,0 0.2,0 0.3,-0.1 0.3,-0.3 0,-1.4 0,-2.8 0,-4.1 0,-0.2 0,-0.4 -0.2,-0.4 z M 7.8,6.9 c -0.6,0 -1,-0.4 -1,-1 0,-0.6 0.4,-1 1,-1 0.6,0 1,0.4 1,1 0,0.6 -0.4,1 -1,1 z M 6.4,3.6 C 6.4,3.1 6.3,2.5 6.4,2 6.5,1.3 7.2,0.8 7.9,0.9 8.7,1 9.2,1.6 9.3,2.3 c 0,0.4 0,0.8 0,1.3 -1,0 -1.9,0 -2.9,0 z"
       id="path5"
       inkscape:connector-curvature="0" /></g><g
     id="g7"
     transform="translate(0,0.90021869)"><path
       d="m 0,15 0,-4.3 0.9,0 0,1.7 1.7,0 0,-1.7 0.9,0 0,4.3 -0.9,0 0,-1.9 -1.7,0 0,1.9 -0.9,0 z"
       id="path9"
       inkscape:connector-curvature="0" /><path
       d="m 4.4,10.7 1.6,0 c 2.7,0 2.7,4.3 0,4.3 l -1.6,0 0,-4.3 z m 0.8,0.7 0,2.8 0.6,0 c 1,0 1.2,-0.7 1.2,-1.6 0,-1 -0.5,-1.3 -1.4,-1.3 l -0.4,0 0,0.1 z"
       id="path11"
       inkscape:connector-curvature="0" /><path
       d="m 8.7,15 0,-4.3 2.9,0 0,0.7 -2,0 0,1 1.8,0 0,0.7 -1.8,0 0,1.9 -0.9,0 z"
       id="path13"
       inkscape:connector-curvature="0" /><path
       d="m 12.1,13.6 0.8,-0.1 c 0.1,0.7 1.6,1.3 1.8,0.3 0.1,-0.8 -1.6,-0.8 -2,-1.2 -1.7,-2 2.7,-3.3 2.8,-0.8 l -0.9,0 c -0.1,-0.6 -0.8,-0.7 -1.3,-0.4 -0.5,0.8 1.1,0.8 1.2,0.9 0.7,0.2 1.2,0.7 1,1.5 -0.2,2 -3.2,1.5 -3.4,-0.2 z"
       id="path15"
       inkscape:connector-curvature="0" /></g><text
     xml:space="preserve"
     style="font-style:normal;font-variant:normal;font-weight:normal;font-stretch:normal;font-size:7.5px;line-height:125%;font-family:Calibri;-inkscape-font-specification:Calibri;letter-spacing:0px;word-spacing:0px;fill:#000000;fill-opacity:1;stroke:none;stroke-width:1px;stroke-linecap:butt;stroke-linejoin:miter;stroke-opacity:1"
     x="2.1955566"
     y="11.18644"
     id="text4153"
     sodipodi:linespacing="125%"><tspan
       sodipodi:role="line"
       id="tspan4155"
       x="2.1955566"
       y="11.18644"
       style="font-style:normal;font-variant:normal;font-weight:bold;font-stretch:normal;font-size:5px;font-family:sans-serif;-inkscape-font-specification:'sans-serif Bold'">web</tspan></text>
</svg>