<?xml version="1.0" encoding="utf-8"?>
<!-- Generator: Adobe Illustrator 19.1.0, SVG Export Plug-In . SVG Version: 6.00 Build 0)  -->
<!DOCTYPE svg PUBLIC "-//W3C//DTD SVG 1.1//EN" "http://www.w3.org/Graphics/SVG/1.1/DTD/svg11.dtd">
<svg version="1.1" id="Ebene_1" xmlns="http://www.w3.org/2000/svg" xmlns:xlink="http://www.w3.org/1999/xlink" x="0px" y="0px"
	 viewBox="0 0 16 16" style="enable-background:new 0 0 16 16;" xml:space="preserve">
<g>
	<path d="M1.1,10.1C3.9,10.1,5,9.6,5.6,9c0.5-0.6,0.6-2.5,0.6-3C4.5,6.8,2.8,7.2,1.1,7.2V10.1L1.1,10.1z"/>
	<path d="M1.1,14.9L1.1,14.9c2.8,0,3.9-0.5,4.5-1.1c0.5-0.6,0.6-2.5,0.6-3C4.5,11.6,2.8,12,1.1,12V14.9z"/>
	<path d="M6.2,3.2c0-1.2-2.3-2.1-5.1-2.1v4.3C3.9,5.3,6.2,4.4,6.2,3.2z"/>
</g>
<g>
	<path d="M9.3,11.6V4.5c1.4,0,3.8-0.5,4.9,0.6c1,1,0.7,2.9-0.5,3.6c-0.9,0.4-2,0.3-2.9,0.3v2.7H9.3V11.6z M10.8,5.7v2
		c0.9,0,2.7,0.2,2.5-1.1C13.1,5.4,11.6,5.7,10.8,5.7z"/>
</g>
</svg>
