<?xml version="1.0" encoding="utf-8"?>
<!-- Generator: Adobe Illustrator 19.0.0, SVG Export Plug-In . SVG Version: 6.00 Build 0)  -->
<!DOCTYPE svg PUBLIC "-//W3C//DTD SVG 1.1//EN" "http://www.w3.org/Graphics/SVG/1.1/DTD/svg11.dtd">
<svg version="1.1" id="Ebene_1" xmlns="http://www.w3.org/2000/svg" xmlns:xlink="http://www.w3.org/1999/xlink" x="0px" y="0px"
	 viewBox="0 0 16 16" style="enable-background:new 0 0 16 16;" xml:space="preserve">
<style type="text/css">
	.st0{fill:#FFFFFF;}
</style>
<g id="XMLID_4_">
	<polygon id="XMLID_8_" class="st0" points="9.9,1 3.6,1 3.6,15 12.5,15 12.5,3.7 9.9,3.7 	"/>
	<path id="XMLID_5_" d="M10.4,0H2.6v16h10.9V3.2L10.4,0z M12.5,15H3.6V1h6.3v2.7h2.6V15z"/>
</g>
<g>
	<path d="M11,7.7c-0.2,0-0.4,0-0.6,0c0-0.5,0-1,0-1.5C10.3,5,9.3,4.1,8.1,4.1C6.9,4.1,5.9,5,5.8,6.2c0,0.5,0,1,0,1.5
		c-0.2,0-0.4,0-0.6,0c-0.3,0-0.4,0.1-0.4,0.4c0,1.4,0,2.7,0,4.1c0,0.2,0.1,0.3,0.3,0.3c1.9,0,3.9,0,5.8,0c0.2,0,0.3-0.1,0.3-0.3
		c0-1.4,0-2.8,0-4.1C11.2,7.9,11.2,7.7,11,7.7z M8.1,11c-0.6,0-1-0.4-1-1c0-0.6,0.4-1,1-1c0.6,0,1,0.4,1,1C9.1,10.6,8.7,11,8.1,11z
		 M6.7,7.7c0-0.5-0.1-1.1,0-1.6C6.8,5.4,7.5,4.9,8.2,5C9,5.1,9.5,5.7,9.6,6.4c0,0.4,0,0.8,0,1.3C8.6,7.7,7.7,7.7,6.7,7.7z"/>
</g>
</svg>
