<?xml version="1.0" encoding="UTF-8" standalone="no"?>
<!-- Generator: Adobe Illustrator 19.0.0, SVG Export Plug-In . SVG Version: 6.00 Build 0)  -->

<svg
   xmlns:dc="http://purl.org/dc/elements/1.1/"
   xmlns:cc="http://creativecommons.org/ns#"
   xmlns:rdf="http://www.w3.org/1999/02/22-rdf-syntax-ns#"
   xmlns:svg="http://www.w3.org/2000/svg"
   xmlns="http://www.w3.org/2000/svg"
   xmlns:sodipodi="http://sodipodi.sourceforge.net/DTD/sodipodi-0.dtd"
   xmlns:inkscape="http://www.inkscape.org/namespaces/inkscape"
   version="1.1"
   id="Ebene_1"
   x="0px"
   y="0px"
   viewBox="0 0 16 16"
   style="enable-background:new 0 0 16 16;"
   xml:space="preserve"
   inkscape:version="0.91 r13725"
   sodipodi:docname="SparkCategory2NumberNodeFactory.svg"
   inkscape:export-filename="C:\temp\spark\spark\SparkCategory2NumberNodeFactory.png"
   inkscape:export-xdpi="90"
   inkscape:export-ydpi="90"><metadata
     id="metadata25"><rdf:RDF><cc:Work
         rdf:about=""><dc:format>image/svg+xml</dc:format><dc:type
           rdf:resource="http://purl.org/dc/dcmitype/StillImage" /></cc:Work></rdf:RDF></metadata><defs
     id="defs23" /><sodipodi:namedview
     pagecolor="#ffffff"
     bordercolor="#666666"
     borderopacity="1"
     objecttolerance="10"
     gridtolerance="10"
     guidetolerance="10"
     inkscape:pageopacity="0"
     inkscape:pageshadow="2"
     inkscape:window-width="2498"
     inkscape:window-height="1417"
     id="namedview21"
     showgrid="false"
     inkscape:zoom="14.75"
     inkscape:cx="-6.8135593"
     inkscape:cy="8"
     inkscape:window-x="54"
     inkscape:window-y="-8"
     inkscape:window-maximized="1"
     inkscape:current-layer="Ebene_1" /><style
     type="text/css"
     id="style3">
	.st0{fill:#FFFFFF;}
	.st1{fill:#CBCBCB;}
</style><rect
     id="XMLID_167_"
     x="2.9000001"
     y="1"
     class="st0"
     width="4"
     height="14"
     style="fill:#f1933b;fill-opacity:1" /><path
     id="XMLID_164_"
     d="m 1.9,0 0,16 6,0 0,-16 -6,0 z m 1,1 4,0 0,14 -4,0 0,-14 z"
     inkscape:connector-curvature="0" /><g
     id="XMLID_11_"
     style="fill:#4eaf75;fill-opacity:1"><polygon
       points="8.9,8.4 4.9,8.4 4.9,7.4 8.9,7.4 8.9,5.6 12.7,7.9 8.9,10.2 "
       id="XMLID_12_"
       style="fill:#4eaf75;fill-opacity:1" /></g><path
     id="XMLID_6_"
     d="M15,5.2c-0.1,0.3-0.4,0.7-0.7,0.9c-0.3,0.2-0.6,0.4-0.9,0.5v1c0.5-0.2,1-0.5,1.4-0.8v4.1h1.1V5.1H15V5.2z" /><path
     id="XMLID_3_"
     d="M11.5,0c2.6,0,2.7,5.9,0,5.8C8.8,5.8,8.9,0,11.5,0z M11.5,0.9c-1.1,0-1.1,4,0,4C12.5,4.9,12.6,0.9,11.5,0.9z" /><path
     id="XMLID_128_"
     d="M13.4,15v1H9.5c0.1-0.9,0.7-1.6,1.4-2.2c0.5-0.5,1.4-1.1,1.4-1.8c0-1-1.1-0.9-1.6-0.3  c-0.1,0.1-0.2,0.5-0.2,0.5l-0.8-0.1c0.1-1.9,2.8-2.5,3.6-0.7c0.7,1.7-1.4,2.6-2.1,3.8H13.4z" /><g
     id="g4150"
     transform="translate(-6,0)"><path
       style="fill:#ffffff;fill-opacity:1"
       inkscape:connector-curvature="0"
       id="path14"
       d="M 11.9,9.2 10.5,7.3 9.8,9.6 C 9.7,9.8 9.6,9.9 9.4,10 l -2.3,0.7 2,1.4 c 0.2,0.1 0.3,0.3 0.3,0.5 l 0,2.4 1.9,-1.5 c 0.2,-0.1 0.4,-0.2 0.5,-0.1 l 2.3,0.7 -0.8,-2.2 c -0.1,-0.2 0,-0.4 0.1,-0.5 L 14.8,9.5 12.4,9.6 C 12.2,9.5 12,9.4 11.9,9.2 Z"
       class="st0" /><path
       style="fill:#e77215;fill-opacity:1;stroke:#e77215;stroke-width:0.40000001;stroke-miterlimit:4;stroke-dasharray:none;stroke-opacity:1"
       inkscape:connector-curvature="0"
       id="path16"
       d="m 15.148388,8.4204986 -2.8,0.1 -1.6,-2.3 c -0.2,-0.3 -0.8000003,-0.2 -0.9000003,0.2 l -0.7000002,2.7 -2.6,0.9000004 c -0.4,0.1 -0.5,0.7 -0.1,0.9 l 2.3,1.6 0,2.8 c 0,0.4 0.5,0.6 0.8,0.4 l 2.2000005,-1.7 2.6,0.9 c 0.4,0.1 0.8,-0.3 0.6,-0.6 l -0.9,-2.6 1.6,-2.3000004 c 0.1,-0.3 0.1,-0.5 0,-0.7 0,-0.1 -0.3,-0.3 -0.5,-0.3 z m -2.1,2.7000004 c -0.1,0.1 -0.1,0.3 -0.1,0.5 l 0.7,1.9 -1.9,-0.6 c -0.2,-0.1 -0.3,0 -0.5,0.1 l -1.6000005,1.2 0,-2 c 0,-0.2 -0.1,-0.3 -0.2,-0.4 l -1.7,-1.2 1.9,-0.6 C 9.8483877,9.9204988 9.9483877,9.8204988 9.9483877,9.7204986 l 0.6000003,-2 1.2,1.6 c 0.1,0.1 0.3,0.2 0.4,0.2 l 2,-0.1 -1.1,1.7000004 z" /></g></svg>