<svg width="16" height="16" viewBox="0 0 16 16" fill="none" xmlns="http://www.w3.org/2000/svg">
<g clip-path="url(#clip0_1877_2413)">
<path d="M-1 10.2C1.8 10.2 2.9 9.70001 3.5 9.10001C4 8.50001 4.1 6.60001 4.1 6.10001C2.4 6.80001 0.7 7.30001 -1 7.30001V10.2Z" fill="black"/>
<path d="M-1 15C1.8 15 2.9 14.5 3.5 13.9C4 13.3 4.1 11.4 4.1 10.9C2.4 11.7 0.7 12.1 -1 12.1V15Z" fill="black"/>
<path d="M4.1 3.30001C4.1 2.10001 1.8 1.20001 -1 1.20001V5.50001C1.8 5.40001 4.1 4.50001 4.1 3.30001Z" fill="black"/>
<ellipse cx="11.5" cy="9.5" rx="2.5" ry="3.5"/>
<path d="M13.2071 12.072V2H15.2V13.8458H13.4019L13.2071 12.072ZM8 9.77378V9.61182C8 8.97429 8.06993 8.39589 8.20978 7.87661C8.35463 7.35219 8.56441 6.90231 8.83913 6.52699C9.11384 6.15167 9.44599 5.86118 9.83559 5.65553C10.2302 5.44987 10.6772 5.34704 11.1767 5.34704C11.6612 5.34704 12.0832 5.4473 12.4429 5.64781C12.8075 5.84833 13.1172 6.13368 13.3719 6.50386C13.6316 6.87404 13.8389 7.31362 13.9938 7.82262C14.1486 8.32648 14.261 8.88175 14.3309 9.48843V9.92802C14.261 10.5193 14.1486 11.0617 13.9938 11.5553C13.8389 12.0488 13.6316 12.4807 13.3719 12.8509C13.1172 13.2159 12.8075 13.4987 12.4429 13.6992C12.0783 13.8997 11.6512 14 11.1617 14C10.6672 14 10.2227 13.8946 9.8281 13.6838C9.4385 13.473 9.10635 13.1774 8.83163 12.7969C8.56191 12.4165 8.35463 11.9692 8.20978 11.455C8.06993 10.9409 8 10.3805 8 9.77378ZM9.98543 9.61182V9.77378C9.98543 10.1337 10.0154 10.4704 10.0753 10.7841C10.1353 11.0977 10.2327 11.3753 10.3675 11.617C10.5024 11.8535 10.6747 12.0386 10.8845 12.1722C11.0993 12.3059 11.359 12.3728 11.6637 12.3728C12.0533 12.3728 12.3729 12.2853 12.6227 12.1105C12.8774 11.9306 13.0747 11.6864 13.2146 11.3779C13.3544 11.0643 13.4443 10.7121 13.4843 10.3213V9.11054C13.4643 8.80206 13.4119 8.51671 13.327 8.2545C13.247 7.99229 13.1322 7.76607 12.9823 7.57584C12.8375 7.3856 12.6576 7.2365 12.4429 7.12853C12.2281 7.02057 11.9734 6.96658 11.6787 6.96658C11.374 6.96658 11.1143 7.03599 10.8995 7.17481C10.6847 7.30848 10.5099 7.49614 10.375 7.73779C10.2402 7.97943 10.1403 8.25964 10.0753 8.57841C10.0154 8.89717 9.98543 9.24165 9.98543 9.61182Z" fill="black"/>
</g>
<defs>
<clipPath id="clip0_1877_2413">
<rect width="16" height="16" fill="white"/>
</clipPath>
</defs>
</svg>
