<?xml version="1.0" encoding="UTF-8" standalone="no"?>
<!-- Generator: Adobe Illustrator 19.0.0, SVG Export Plug-In . SVG Version: 6.00 Build 0)  -->

<svg
   xmlns:dc="http://purl.org/dc/elements/1.1/"
   xmlns:cc="http://creativecommons.org/ns#"
   xmlns:rdf="http://www.w3.org/1999/02/22-rdf-syntax-ns#"
   xmlns:svg="http://www.w3.org/2000/svg"
   xmlns="http://www.w3.org/2000/svg"
   xmlns:sodipodi="http://sodipodi.sourceforge.net/DTD/sodipodi-0.dtd"
   xmlns:inkscape="http://www.inkscape.org/namespaces/inkscape"
   version="1.0"
   id="Ebene_1"
   x="0px"
   y="0px"
   viewBox="0 0 16 16"
   enable-background="new 0 0 16 16"
   xml:space="preserve"
   inkscape:version="0.48.5 r10040"
   width="100%"
   height="100%"
   sodipodi:docname="icon.svg"
   inkscape:export-filename="icon.png"
   inkscape:export-xdpi="90"
   inkscape:export-ydpi="90"><metadata
     id="metadata2996"><rdf:RDF><cc:Work
         rdf:about=""><dc:format>image/svg+xml</dc:format><dc:type
           rdf:resource="http://purl.org/dc/dcmitype/StillImage" /><dc:title></dc:title></cc:Work></rdf:RDF></metadata><defs
     id="defs2994" /><sodipodi:namedview
     pagecolor="#ffffff"
     bordercolor="#666666"
     borderopacity="1"
     objecttolerance="10"
     gridtolerance="10"
     guidetolerance="10"
     inkscape:pageopacity="0"
     inkscape:pageshadow="2"
     inkscape:window-width="1600"
     inkscape:window-height="852"
     id="namedview2992"
     showgrid="false"
     inkscape:zoom="29.5"
     inkscape:cx="6.5310058"
     inkscape:cy="6.9359538"
     inkscape:window-x="0"
     inkscape:window-y="25"
     inkscape:window-maximized="1"
     inkscape:current-layer="Ebene_1" /><g
     id="XMLID_1_"
     transform="matrix(1.7021277,0,0,1.7021277,-8.3404257,-5.6170215)"><path
       id="XMLID_3_"
       d="M 8.7,10.2 H 7.2 C 7.2,10 7.2,9.4 7.2,9.4 7.2,8.9 7.3,8.5 7.4,8.2 7.5,7.9 7.9,7.5 8.4,7.1 8.9,6.7 9.2,6.5 9.3,6.3 9.4,6.2 9.5,6 9.5,5.8 9.5,5.5 9.4,5.2 9.1,5 8.8,4.8 8.5,4.7 8.1,4.7 7.7,4.7 7.3,4.8 7,5 6.7,5.3 6.5,5.5 6.4,6 L 4.9,5.8 C 4.9,5.1 5.2,4.5 5.8,4 6.4,3.5 7.1,3.3 8,3.3 c 0.9,0 1.7,0.2 2.3,0.7 0.6,0.5 0.8,1.1 0.8,1.7 0,0.4 -0.1,0.7 -0.3,1 C 10.6,7 10.2,7.5 9.5,8 9.1,8.4 8.9,8.7 8.8,8.9 8.7,9 8.7,9.8 8.7,10.2 z M 7.2,12.7 V 11 h 1.6 v 1.7 H 7.2 l 0,0 z"
       inkscape:connector-curvature="0" /></g><g
     transform="translate(0.07096843,-0.0074345)"
     id="g4150"><path
       style="fill:#ffffff;fill-opacity:1"
       inkscape:connector-curvature="0"
       id="path14"
       d="M 11.9,9.2 10.5,7.3 9.8,9.6 C 9.7,9.8 9.6,9.9 9.4,10 l -2.3,0.7 2,1.4 c 0.2,0.1 0.3,0.3 0.3,0.5 l 0,2.4 1.9,-1.5 c 0.2,-0.1 0.4,-0.2 0.5,-0.1 l 2.3,0.7 -0.8,-2.2 c -0.1,-0.2 0,-0.4 0.1,-0.5 L 14.8,9.5 12.4,9.6 C 12.2,9.5 12,9.4 11.9,9.2 z"
       class="st0" /><path
       style="fill:#e77215;fill-opacity:1;stroke:#e77215;stroke-width:0.40000001;stroke-miterlimit:4;stroke-opacity:1;stroke-dasharray:none"
       inkscape:connector-curvature="0"
       id="path16"
       d="m 15.148388,8.4204986 -2.8,0.1 -1.6,-2.3 c -0.2,-0.3 -0.8000003,-0.2 -0.9000003,0.2 l -0.7000002,2.7 -2.6,0.9000004 c -0.4,0.1 -0.5,0.7 -0.1,0.9 l 2.3,1.6 0,2.8 c 0,0.4 0.5,0.6 0.8,0.4 l 2.2000005,-1.7 2.6,0.9 c 0.4,0.1 0.8,-0.3 0.6,-0.6 l -0.9,-2.6 1.6,-2.3000004 c 0.1,-0.3 0.1,-0.5 0,-0.7 0,-0.1 -0.3,-0.3 -0.5,-0.3 z m -2.1,2.7000004 c -0.1,0.1 -0.1,0.3 -0.1,0.5 l 0.7,1.9 -1.9,-0.6 c -0.2,-0.1 -0.3,0 -0.5,0.1 l -1.6000005,1.2 0,-2 c 0,-0.2 -0.1,-0.3 -0.2,-0.4 l -1.7,-1.2 1.9,-0.6 C 9.8483877,9.9204988 9.9483877,9.8204988 9.9483877,9.7204986 l 0.6000003,-2 1.2,1.6 c 0.1,0.1 0.3,0.2 0.4,0.2 l 2,-0.1 -1.1,1.7000004 z" /></g></svg>
