<?xml version="1.0" encoding="UTF-8" standalone="no"?>
<!-- Generator: Adobe Illustrator 19.0.0, SVG Export Plug-In . SVG Version: 6.00 Build 0)  -->

<svg
   xmlns:dc="http://purl.org/dc/elements/1.1/"
   xmlns:cc="http://creativecommons.org/ns#"
   xmlns:rdf="http://www.w3.org/1999/02/22-rdf-syntax-ns#"
   xmlns:svg="http://www.w3.org/2000/svg"
   xmlns="http://www.w3.org/2000/svg"
   xmlns:sodipodi="http://sodipodi.sourceforge.net/DTD/sodipodi-0.dtd"
   xmlns:inkscape="http://www.inkscape.org/namespaces/inkscape"
   version="1.1"
   id="Ebene_1"
   x="0px"
   y="0px"
   viewBox="0 0 16 16"
   style="enable-background:new 0 0 16 16;"
   xml:space="preserve"
   inkscape:version="0.91 r13725"
   sodipodi:docname="icon.svg"
   inkscape:export-filename="C:\DEVELOPMENT\workspaces\trunk_3.1\com.knime.bigdata.spark\src\com\knime\bigdata\spark\node\io\table\reader\icon.png"
   inkscape:export-xdpi="90"
   inkscape:export-ydpi="90"><metadata
     id="metadata24"><rdf:RDF><cc:Work
         rdf:about=""><dc:format>image/svg+xml</dc:format><dc:type
           rdf:resource="http://purl.org/dc/dcmitype/StillImage" /><dc:title /></cc:Work></rdf:RDF></metadata><defs
     id="defs22"><pattern
       y="0"
       x="0"
       height="6"
       width="6"
       patternUnits="userSpaceOnUse"
       id="EMFhbasepattern" /></defs><sodipodi:namedview
     pagecolor="#ffffff"
     bordercolor="#666666"
     borderopacity="1"
     objecttolerance="10"
     gridtolerance="10"
     guidetolerance="10"
     inkscape:pageopacity="0"
     inkscape:pageshadow="2"
     inkscape:window-width="2498"
     inkscape:window-height="1417"
     id="namedview20"
     showgrid="true"
     inkscape:zoom="78"
     inkscape:cx="8"
     inkscape:cy="8"
     inkscape:window-x="54"
     inkscape:window-y="-8"
     inkscape:window-maximized="1"
     inkscape:current-layer="Ebene_1"><inkscape:grid
       type="xygrid"
       id="grid4146" /></sodipodi:namedview><style
     type="text/css"
     id="style3">
	.st0{fill:#FFFFFF;}
	.st1{fill:#CBCBCB;}
</style><g
     transform="translate(289,-412.89999)"
     id="g5"><rect
       x="-284"
       y="422.20001"
       class="st0"
       width="2.8"
       height="3.3"
       id="rect7"
       style="fill:#ffffff" /><rect
       x="-280.20001"
       y="422.20001"
       class="st0"
       width="3"
       height="3.3"
       id="rect9"
       style="fill:#ffffff" /><rect
       x="-280.20001"
       y="418.10001"
       class="st0"
       width="3"
       height="3.0999999"
       id="rect11"
       style="fill:#ffffff" /><rect
       x="-288"
       y="422.20001"
       class="st0"
       width="3"
       height="3.3"
       id="rect13"
       style="fill:#ffffff" /><rect
       x="-284"
       y="418.10001"
       class="st0"
       width="2.8"
       height="3.0999999"
       id="rect15"
       style="fill:#ffffff" /><rect
       x="-288"
       y="418.10001"
       class="st0"
       width="3"
       height="3.0999999"
       id="rect17"
       style="fill:#ffffff" /><path
       inkscape:connector-curvature="0"
       d="m -289,412.9 0,13.6 12.8,0 0,-13.6 -12.8,0 z m 4,12.6 -3,0 0,-3.3 3,0 0,3.3 z m -3,-7.4 3,0 0,3.1 -3,0 0,-3.1 z m 6.8,3.1 -2.8,0 0,-3.1 2.8,0 0,3.1 z m -2.8,1 2.8,0 0,3.3 -2.8,0 0,-3.3 z m 3.8,0 3,0 0,3.3 -3,0 0,-3.3 z m 3,-1 -3,0 0,-3.1 3,0 0,3.1 z"
       id="path19" /></g><g
     transform="translate(289,-412.89999)"
     class="st2"
     id="g23"><g
       id="g25"><rect
         x="-288.60001"
         y="413.29999"
         class="st3"
         width="11.9"
         height="4.3000002"
         id="rect27" /><path
         inkscape:connector-curvature="0"
         d="m -276.2,418.1 -12.8,0 0,-5.2 12.8,0 0,5.2 z m -11.9,-0.9 11,0 0,-3.4 -11,0 0,3.4 z"
         id="path29" /></g></g><rect
     x="0.3999939"
     y="0.39999399"
     class="st3"
     width="11.9"
     height="4.3000002"
     id="rect27-7"
     style="fill:#f1933b" /><g
     id="g4150"><path
       style="fill:#ffffff;fill-opacity:1"
       inkscape:connector-curvature="0"
       id="path14"
       d="M 11.9,9.2 10.5,7.3 9.8,9.6 C 9.7,9.8 9.6,9.9 9.4,10 l -2.3,0.7 2,1.4 c 0.2,0.1 0.3,0.3 0.3,0.5 l 0,2.4 1.9,-1.5 c 0.2,-0.1 0.4,-0.2 0.5,-0.1 l 2.3,0.7 -0.8,-2.2 c -0.1,-0.2 0,-0.4 0.1,-0.5 L 14.8,9.5 12.4,9.6 C 12.2,9.5 12,9.4 11.9,9.2 Z"
       class="st0" /><path
       style="fill:#e77215;fill-opacity:1;stroke:#e77215;stroke-width:0.40000001;stroke-miterlimit:4;stroke-dasharray:none;stroke-opacity:1"
       inkscape:connector-curvature="0"
       id="path16"
       d="m 15.148388,8.4204986 -2.8,0.1 -1.6,-2.3 c -0.2,-0.3 -0.8000003,-0.2 -0.9000003,0.2 l -0.7000002,2.7 -2.6,0.9000004 c -0.4,0.1 -0.5,0.7 -0.1,0.9 l 2.3,1.6 0,2.8 c 0,0.4 0.5,0.6 0.8,0.4 l 2.2000005,-1.7 2.6,0.9 c 0.4,0.1 0.8,-0.3 0.6,-0.6 l -0.9,-2.6 1.6,-2.3000004 c 0.1,-0.3 0.1,-0.5 0,-0.7 0,-0.1 -0.3,-0.3 -0.5,-0.3 z m -2.1,2.7000004 c -0.1,0.1 -0.1,0.3 -0.1,0.5 l 0.7,1.9 -1.9,-0.6 c -0.2,-0.1 -0.3,0 -0.5,0.1 l -1.6000005,1.2 0,-2 c 0,-0.2 -0.1,-0.3 -0.2,-0.4 l -1.7,-1.2 1.9,-0.6 C 9.8483877,9.9204988 9.9483877,9.8204988 9.9483877,9.7204986 l 0.6000003,-2 1.2,1.6 c 0.1,0.1 0.3,0.2 0.4,0.2 l 2,-0.1 -1.1,1.7000004 z" /></g></svg>