<?xml version="1.0" encoding="UTF-8" standalone="no"?>
<svg
   xmlns:dc="http://purl.org/dc/elements/1.1/"
   xmlns:cc="http://creativecommons.org/ns#"
   xmlns:rdf="http://www.w3.org/1999/02/22-rdf-syntax-ns#"
   xmlns:svg="http://www.w3.org/2000/svg"
   xmlns="http://www.w3.org/2000/svg"
   xmlns:sodipodi="http://sodipodi.sourceforge.net/DTD/sodipodi-0.dtd"
   xmlns:inkscape="http://www.inkscape.org/namespaces/inkscape"
   version="1.1"
   id="Ebene_1"
   x="0px"
   y="0px"
   viewBox="0 0 16 16"
   style="enable-background:new 0 0 16 16;"
   xml:space="preserve"
   sodipodi:docname="knoxconnection16x16.svg"
   inkscape:export-filename="knoxconnection16x16.png"
   inkscape:export-xdpi="96"
   inkscape:export-ydpi="96"
   inkscape:version="0.92.4 (5da689c313, 2019-01-14)"><metadata
   id="metadata21"><rdf:RDF><cc:Work
       rdf:about=""><dc:format>image/svg+xml</dc:format><dc:type
         rdf:resource="http://purl.org/dc/dcmitype/StillImage" /><dc:title></dc:title></cc:Work></rdf:RDF></metadata><defs
   id="defs19" /><sodipodi:namedview
   pagecolor="#ffffff"
   bordercolor="#666666"
   borderopacity="1"
   objecttolerance="10"
   gridtolerance="10"
   guidetolerance="10"
   inkscape:pageopacity="0"
   inkscape:pageshadow="2"
   inkscape:window-width="1458"
   inkscape:window-height="870"
   id="namedview17"
   showgrid="false"
   inkscape:zoom="14.75"
   inkscape:cx="7.0847458"
   inkscape:cy="8"
   inkscape:window-x="212"
   inkscape:window-y="157"
   inkscape:window-maximized="0"
   inkscape:current-layer="Ebene_1" />
<text
   xml:space="preserve"
   style="font-style:normal;font-variant:normal;font-weight:normal;font-stretch:normal;font-size:29.23925781px;line-height:125%;font-family:Arial;-inkscape-font-specification:Arial;letter-spacing:0px;word-spacing:0px;fill:#000000;fill-opacity:1;stroke:none;stroke-width:0.99999988px;stroke-linecap:butt;stroke-linejoin:miter;stroke-opacity:1"
   x="-0.48480991"
   y="14.908616"
   id="text25"><tspan
     sodipodi:role="line"
     id="tspan23"
     x="-0.48480991"
     y="14.908616"
     style="font-style:normal;font-variant:normal;font-weight:normal;font-stretch:normal;font-size:5.84785128px;font-family:Arial;-inkscape-font-specification:Arial;stroke-width:0.99999988px">KNOX</tspan></text>


<g
   id="g4"
   transform="translate(0.3)">
	<path
   d="m 10.7,3.6 c -0.2,0 -0.4,0 -0.6,0 0,-0.5 0,-1 0,-1.5 C 10,0.9 9,0 7.8,0 6.6,0 5.6,0.9 5.5,2.1 c 0,0.5 0,1 0,1.5 -0.2,0 -0.4,0 -0.6,0 -0.3,0 -0.4,0.1 -0.4,0.4 0,1.4 0,2.7 0,4.1 0,0.2 0.1,0.3 0.3,0.3 1.9,0 3.9,0 5.8,0 0.2,0 0.3,-0.1 0.3,-0.3 0,-1.4 0,-2.8 0,-4.1 0,-0.2 0,-0.4 -0.2,-0.4 z M 7.8,6.9 c -0.6,0 -1,-0.4 -1,-1 0,-0.6 0.4,-1 1,-1 0.6,0 1,0.4 1,1 0,0.6 -0.4,1 -1,1 z M 6.4,3.6 C 6.4,3.1 6.3,2.5 6.4,2 6.5,1.3 7.2,0.8 7.9,0.9 8.7,1 9.2,1.6 9.3,2.3 c 0,0.4 0,0.8 0,1.3 -1,0 -1.9,0 -2.9,0 z"
   id="path2"
   inkscape:connector-curvature="0" />
</g>

</svg>
