<?xml version="1.0" encoding="utf-8"?>
<!-- Generator: Adobe Illustrator 19.0.0, SVG Export Plug-In . SVG Version: 6.00 Build 0)  -->
<!DOCTYPE svg PUBLIC "-//W3C//DTD SVG 1.1//EN" "http://www.w3.org/Graphics/SVG/1.1/DTD/svg11.dtd">
<svg version="1.1" id="Ebene_1" xmlns="http://www.w3.org/2000/svg" xmlns:xlink="http://www.w3.org/1999/xlink" x="0px" y="0px"
	 viewBox="0 0 16 16" style="enable-background:new 0 0 16 16;" xml:space="preserve">
<g id="XMLID_102_">
	<path id="XMLID_105_" d="M1.6,10.1C4.7,10.1,6,9.6,6.6,9c0.6-0.6,0.7-2.5,0.7-3c-2,0.8-3.9,1.3-5.8,1.3L1.6,10.1
		C1.5,10.1,1.5,10.1,1.6,10.1z"/>
	<path id="XMLID_104_" d="M1.5,12v2.9c0,0,0,0,0,0c3.2,0,4.5-0.5,5.1-1.1c0.6-0.6,0.7-2.5,0.7-3C5.4,11.6,3.5,12,1.5,12z"/>
	<path id="XMLID_103_" d="M1.5,5.3c3.2,0,5.8-1,5.8-2.1c0-1.2-2.6-2.1-5.8-2.1c0,0,0,0,0,0L1.5,5.3C1.5,5.3,1.5,5.3,1.5,5.3z"/>
</g>
<g>
	<path d="M8.6,11.4V4.6H10v2.7h2.7V4.6h1.4v6.8h-1.4v-3H10v3H8.6z"/>
</g>
</svg>
