<?xml version="1.0" encoding="UTF-8" standalone="no"?>

<svg
   xmlns:dc="http://purl.org/dc/elements/1.1/"
   xmlns:cc="http://creativecommons.org/ns#"
   xmlns:rdf="http://www.w3.org/1999/02/22-rdf-syntax-ns#"
   xmlns:svg="http://www.w3.org/2000/svg"
   xmlns="http://www.w3.org/2000/svg"
   xmlns:sodipodi="http://sodipodi.sourceforge.net/DTD/sodipodi-0.dtd"
   xmlns:inkscape="http://www.inkscape.org/namespaces/inkscape"
   version="1.1"
   id="Ebene_1"
   x="0px"
   y="0px"
   viewBox="-289 412.9 16 16"
   style="enable-background:new -289 412.9 16 16;"
   xml:space="preserve"
   inkscape:version="0.48.5 r10040"
   width="100%"
   height="100%"
   sodipodi:docname="icon.svg"
   inkscape:export-filename="icon.png"
   inkscape:export-xdpi="90"
   inkscape:export-ydpi="90"><metadata
     id="metadata16"><rdf:RDF><cc:Work
         rdf:about=""><dc:format>image/svg+xml</dc:format><dc:type
           rdf:resource="http://purl.org/dc/dcmitype/StillImage" /><dc:title></dc:title></cc:Work></rdf:RDF></metadata><defs
     id="defs14" /><sodipodi:namedview
     pagecolor="#ffffff"
     bordercolor="#666666"
     borderopacity="1"
     objecttolerance="10"
     gridtolerance="10"
     guidetolerance="10"
     inkscape:pageopacity="0"
     inkscape:pageshadow="2"
     inkscape:window-width="1006"
     inkscape:window-height="795"
     id="namedview12"
     showgrid="true"
     inkscape:snap-nodes="false"
     inkscape:zoom="29.5"
     inkscape:cx="6.9580453"
     inkscape:cy="8.1790397"
     inkscape:window-x="0"
     inkscape:window-y="206"
     inkscape:window-maximized="0"
     inkscape:current-layer="Ebene_1"><inkscape:grid
       type="xygrid"
       id="grid3026" /></sodipodi:namedview><style
     type="text/css"
     id="style3">
	.st0{fill:#F1933B;}
	.st1{fill:#FFFFFF;}
</style><rect
     style="fill:#f1933b"
     height="2.748091"
     width="9.6183186"
     class="st0"
     y="413.58701"
     x="-288.34689"
     id="XMLID_11_" /><path
     inkscape:connector-curvature="0"
     id="XMLID_8_"
     d="m -278.04152,412.89999 h -10.99237 v 4.12214 h 10.99237 v -4.12214 z m -10.30534,3.43512 v -2.74809 h 9.61831 v 2.74809 h -9.61831 z" /><polygon
     id="XMLID_19_"
     points="-280.6,427.1 -280.6,426.4 -276.7,426.4 -276.7,423.9 -277.9,423.9 -276.3,421.1 -274.7,423.9 -275.9,423.9 -275.9,427.1 -275.9,427.1 -275.9,427.1 "
     transform="matrix(0.68702275,0,0,0.68702275,-91.517051,128.09479)" /><g
     id="XMLID_2_"
     transform="matrix(0.68702275,0,0,0.68702275,-90.484317,129.2283)"><rect
       style="fill:#ffffff"
       id="XMLID_6_"
       x="-288"
       y="413.89999"
       class="st1"
       width="4"
       height="14.1" /><path
       inkscape:connector-curvature="0"
       id="XMLID_3_"
       d="m -289,412.9 v 16 h 6 v -16 h -6 z m 5,15 h -4 v -14 h 4 v 14 z" /></g><g
     transform="translate(-288.95566,412.90104)"
     id="g4150"><path
       style="fill:#ffffff;fill-opacity:1"
       inkscape:connector-curvature="0"
       id="path14"
       d="M 11.9,9.2 10.5,7.3 9.8,9.6 C 9.7,9.8 9.6,9.9 9.4,10 l -2.3,0.7 2,1.4 c 0.2,0.1 0.3,0.3 0.3,0.5 l 0,2.4 1.9,-1.5 c 0.2,-0.1 0.4,-0.2 0.5,-0.1 l 2.3,0.7 -0.8,-2.2 c -0.1,-0.2 0,-0.4 0.1,-0.5 L 14.8,9.5 12.4,9.6 C 12.2,9.5 12,9.4 11.9,9.2 z"
       class="st0" /><path
       style="fill:#e77215;fill-opacity:1;stroke:#e77215;stroke-width:0.40000001;stroke-miterlimit:4;stroke-opacity:1;stroke-dasharray:none"
       inkscape:connector-curvature="0"
       id="path16"
       d="m 15.148388,8.4204986 -2.8,0.1 -1.6,-2.3 c -0.2,-0.3 -0.8000003,-0.2 -0.9000003,0.2 l -0.7000002,2.7 -2.6,0.9000004 c -0.4,0.1 -0.5,0.7 -0.1,0.9 l 2.3,1.6 0,2.8 c 0,0.4 0.5,0.6 0.8,0.4 l 2.2000005,-1.7 2.6,0.9 c 0.4,0.1 0.8,-0.3 0.6,-0.6 l -0.9,-2.6 1.6,-2.3000004 c 0.1,-0.3 0.1,-0.5 0,-0.7 0,-0.1 -0.3,-0.3 -0.5,-0.3 z m -2.1,2.7000004 c -0.1,0.1 -0.1,0.3 -0.1,0.5 l 0.7,1.9 -1.9,-0.6 c -0.2,-0.1 -0.3,0 -0.5,0.1 l -1.6000005,1.2 0,-2 c 0,-0.2 -0.1,-0.3 -0.2,-0.4 l -1.7,-1.2 1.9,-0.6 C 9.8483877,9.9204988 9.9483877,9.8204988 9.9483877,9.7204986 l 0.6000003,-2 1.2,1.6 c 0.1,0.1 0.3,0.2 0.4,0.2 l 2,-0.1 -1.1,1.7000004 z" /></g></svg>
