<?xml version="1.0" encoding="utf-8"?>
<!-- Generator: Adobe Illustrator 19.0.0, SVG Export Plug-In . SVG Version: 6.00 Build 0)  -->
<!DOCTYPE svg PUBLIC "-//W3C//DTD SVG 1.1//EN" "http://www.w3.org/Graphics/SVG/1.1/DTD/svg11.dtd">
<svg version="1.1" id="Ebene_1" xmlns="http://www.w3.org/2000/svg" xmlns:xlink="http://www.w3.org/1999/xlink" x="0px" y="0px"
	 viewBox="0 0 16 16" style="enable-background:new 0 0 16 16;" xml:space="preserve">
<g id="XMLID_102_">
	<path id="XMLID_105_" d="M2.2,10.1c3.2,0,4.5-0.5,5.1-1.1C7.9,8.4,8,6.5,8,5.9C6,6.8,4.1,7.2,2.2,7.2L2.2,10.1
		C2.2,10.1,2.2,10.1,2.2,10.1z"/>
	<path id="XMLID_104_" d="M2.2,12v2.9c0,0,0,0,0,0c3.2,0,4.5-0.5,5.1-1.1c0.6-0.6,0.7-2.5,0.7-3C6,11.6,4.1,12,2.2,12z"/>
	<path id="XMLID_103_" d="M2.2,5.3c3.2,0,5.8-1,5.8-2.1C8,2,5.4,1.1,2.2,1.1c0,0,0,0,0,0L2.2,5.3C2.2,5.3,2.2,5.3,2.2,5.3z"/>
</g>
<g>
	<path d="M10.6,10.4v-1h1.1v1H10.6z M10.6,15.1V11h1.1v4.1H10.6z"/>
</g>
<g id="XMLID_11_">
	<polygon id="XMLID_12_" points="11.1,8 13.4,4.1 11.6,4.1 11.6,0.2 10.6,0.2 10.6,4.1 8.9,4.1 	"/>
</g>
</svg>
