<?xml version="1.0" encoding="UTF-8" standalone="no"?>
<!-- Generator: Adobe Illustrator 19.1.0, SVG Export Plug-In . SVG Version: 6.00 Build 0)  -->

<svg
   xmlns:dc="http://purl.org/dc/elements/1.1/"
   xmlns:cc="http://creativecommons.org/ns#"
   xmlns:rdf="http://www.w3.org/1999/02/22-rdf-syntax-ns#"
   xmlns:svg="http://www.w3.org/2000/svg"
   xmlns="http://www.w3.org/2000/svg"
   xmlns:sodipodi="http://sodipodi.sourceforge.net/DTD/sodipodi-0.dtd"
   xmlns:inkscape="http://www.inkscape.org/namespaces/inkscape"
   version="1.1"
   id="Ebene_1"
   x="0px"
   y="0px"
   viewBox="-412 290.3 16 16"
   style="enable-background:new -412 290.3 16 16;"
   xml:space="preserve"
   inkscape:version="0.91 r13725"
   sodipodi:docname="SparkConcatenate.svg"
   inkscape:export-filename="C:\temp\spark\spark\SparkConcatenate.png"
   inkscape:export-xdpi="90"
   inkscape:export-ydpi="90"><metadata
     id="metadata22"><rdf:RDF><cc:Work
         rdf:about=""><dc:format>image/svg+xml</dc:format><dc:type
           rdf:resource="http://purl.org/dc/dcmitype/StillImage" /></cc:Work></rdf:RDF></metadata><defs
     id="defs20" /><sodipodi:namedview
     pagecolor="#ffffff"
     bordercolor="#666666"
     borderopacity="1"
     objecttolerance="10"
     gridtolerance="10"
     guidetolerance="10"
     inkscape:pageopacity="0"
     inkscape:pageshadow="2"
     inkscape:window-width="2498"
     inkscape:window-height="1417"
     id="namedview18"
     showgrid="true"
     inkscape:zoom="41.7193"
     inkscape:cx="-1.288267"
     inkscape:cy="4.2480226"
     inkscape:window-x="54"
     inkscape:window-y="-8"
     inkscape:window-maximized="1"
     inkscape:current-layer="Ebene_1"><inkscape:grid
       type="xygrid"
       id="grid4145" /></sodipodi:namedview><style
     type="text/css"
     id="style3">
	.st0{fill:#FFFFFF;}
	.st1{fill:#4BA1BF;}
</style><g
     id="g5"
     transform="translate(0,-2.9998893)"><path
       d="m -406,295.2 3.7,0 c 0.1,-0.4 0.2,-0.6 0.4,-0.9 l -10.1,0 0,6 4.3,0 c 0.1,-0.4 0.3,-0.7 0.6,-1 l -3.9,0 0,-4 4,0 0,3.8 0.3,-0.3 c 0.2,-0.2 0.5,-0.4 0.7,-0.6 l 0,-3 0,0 z"
       id="path7"
       inkscape:connector-curvature="0" /><path
       class="st0"
       d="m -402.3,295.2 -3.7,0 0,0.1 0,2.9 c 0.1,-0.1 0.2,-0.2 0.3,-0.3 0.8,-0.8 1.6,-0.7 2.7,-0.3 l 0.2,0 0.5,-0.5 0,-0.1 c -0.5,-0.4 0,-1.8 0,-1.8 z"
       id="path9"
       inkscape:connector-curvature="0"
       style="fill:#ffffff" /><path
       class="st0"
       d="m -411,295.3 0,4 3.9,0 c 0,-0.1 0.1,-0.1 0.1,-0.2 l 0,-3.8 -4,0 z"
       id="path11"
       inkscape:connector-curvature="0"
       style="fill:#ffffff" /></g><g
     id="ioRV70.tif_1_"
     transform="translate(0,-2.9279802)"><g
       id="XMLID_11_"><path
         id="XMLID_14_"
         class="st1"
         d="m -400.1,298.8 c 0.3,-0.3 2,-1.9 2.6,-2.4 0.4,-0.4 0.3,-1.3 -0.2,-1.7 -0.4,-0.3 -1.2,-0.4 -1.5,0 -0.8,0.8 -1.6,1.6 -2.5,2.4 l -0.1,0.1 c -0.3,-0.4 -0.4,-1.2 0.6,-2.3 0.3,-0.4 0.7,-0.8 1.1,-1.2 0.9,-0.8 2.3,-0.6 3.3,0.5 1.2,1.5 0.9,2.4 0,3.1 -0.4,0.5 -0.8,0.7 -1.2,1.1 -0.6,0.5 -1.4,0.8 -2.1,0.4 z"
         inkscape:connector-curvature="0"
         style="fill:#4ba1bf" /><path
         id="XMLID_13_"
         class="st1"
         d="m -403.1,298.2 c 0,0 -1.7,1.6 -2.5,2.4 -0.4,0.4 0,1.3 0.2,1.5 0.4,0.4 1.3,0.6 1.7,0.2 0.8,-0.8 1.6,-1.6 2.5,-2.3 l 0.1,-0.1 0,0 c 0,0.1 0.1,0.3 0.1,0.4 0.1,0.7 -0.1,1.3 -0.6,1.7 -0.5,0.5 -1,0.9 -1.4,1.3 -0.8,0.7 -1.8,1.2 -3.4,-0.6 -1.2,-1.3 -0.8,-2.3 -0.1,-3.1 0.4,-0.3 0.8,-0.7 1.2,-1.1 0.7,-0.5 1.4,-0.7 2.2,-0.3 0,-0.1 0,0 0,0 z"
         inkscape:connector-curvature="0"
         style="fill:#4ba1bf" /><path
         id="XMLID_12_"
         class="st1"
         d="m -399.9,296 c 0.3,0 0.7,0.2 0.8,0.5 0.1,0.3 0.1,0.7 -0.2,0.9 -1.1,1.1 -2.2,2.1 -3.3,3.1 -0.3,0.3 -0.9,0.3 -1.2,0 -0.3,-0.2 -0.3,-0.8 0,-1.1 1.1,-1 3.7,-3.4 3.9,-3.4 z"
         inkscape:connector-curvature="0"
         style="fill:#4ba1bf" /></g></g><g
     transform="translate(-412,290.29999)"
     id="g4150"><path
       style="fill:#ffffff;fill-opacity:1"
       inkscape:connector-curvature="0"
       id="path14"
       d="M 11.9,9.2 10.5,7.3 9.8,9.6 C 9.7,9.8 9.6,9.9 9.4,10 l -2.3,0.7 2,1.4 c 0.2,0.1 0.3,0.3 0.3,0.5 l 0,2.4 1.9,-1.5 c 0.2,-0.1 0.4,-0.2 0.5,-0.1 l 2.3,0.7 -0.8,-2.2 c -0.1,-0.2 0,-0.4 0.1,-0.5 L 14.8,9.5 12.4,9.6 C 12.2,9.5 12,9.4 11.9,9.2 Z"
       class="st0" /><path
       style="fill:#e77215;fill-opacity:1;stroke:#e77215;stroke-width:0.40000001;stroke-miterlimit:4;stroke-dasharray:none;stroke-opacity:1"
       inkscape:connector-curvature="0"
       id="path16"
       d="m 15.148388,8.4204986 -2.8,0.1 -1.6,-2.3 c -0.2,-0.3 -0.8000003,-0.2 -0.9000003,0.2 l -0.7000002,2.7 -2.6,0.9000004 c -0.4,0.1 -0.5,0.7 -0.1,0.9 l 2.3,1.6 0,2.8 c 0,0.4 0.5,0.6 0.8,0.4 l 2.2000005,-1.7 2.6,0.9 c 0.4,0.1 0.8,-0.3 0.6,-0.6 l -0.9,-2.6 1.6,-2.3000004 c 0.1,-0.3 0.1,-0.5 0,-0.7 0,-0.1 -0.3,-0.3 -0.5,-0.3 z m -2.1,2.7000004 c -0.1,0.1 -0.1,0.3 -0.1,0.5 l 0.7,1.9 -1.9,-0.6 c -0.2,-0.1 -0.3,0 -0.5,0.1 l -1.6000005,1.2 0,-2 c 0,-0.2 -0.1,-0.3 -0.2,-0.4 l -1.7,-1.2 1.9,-0.6 C 9.8483877,9.9204988 9.9483877,9.8204988 9.9483877,9.7204986 l 0.6000003,-2 1.2,1.6 c 0.1,0.1 0.3,0.2 0.4,0.2 l 2,-0.1 -1.1,1.7000004 z" /></g></svg>